<svg width="1280" height="720" xmlns="http://www.w3.org/2000/svg" xmlns:xlink="http://www.w3.org/1999/xlink" overflow="hidden"><defs><clipPath id="clip0"><path d="M0 0 1280 0 1280 720 0 720Z" fill-rule="evenodd" clip-rule="evenodd"/></clipPath><clipPath id="clip1"><path d="M88 60 184 60 184 156 88 156Z" fill-rule="evenodd" clip-rule="evenodd"/></clipPath><clipPath id="clip2"><path d="M88 60 184 60 184 156 88 156Z" fill-rule="evenodd" clip-rule="evenodd"/></clipPath><clipPath id="clip3"><path d="M88 60 184 60 184 156 88 156Z" fill-rule="evenodd" clip-rule="evenodd"/></clipPath><clipPath id="clip4"><path d="M221 344 296 344 296 420 221 420Z" fill-rule="evenodd" clip-rule="evenodd"/></clipPath><clipPath id="clip5"><path d="M221 344 296 344 296 420 221 420Z" fill-rule="evenodd" clip-rule="evenodd"/></clipPath><clipPath id="clip6"><path d="M221 344 296 344 296 420 221 420Z" fill-rule="evenodd" clip-rule="evenodd"/></clipPath><clipPath id="clip7"><path d="M475 344 551 344 551 420 475 420Z" fill-rule="evenodd" clip-rule="evenodd"/></clipPath><clipPath id="clip8"><path d="M475 344 551 344 551 420 475 420Z" fill-rule="evenodd" clip-rule="evenodd"/></clipPath><clipPath id="clip9"><path d="M475 344 551 344 551 420 475 420Z" fill-rule="evenodd" clip-rule="evenodd"/></clipPath><clipPath id="clip10"><path d="M729 344 805 344 805 420 729 420Z" fill-rule="evenodd" clip-rule="evenodd"/></clipPath><clipPath id="clip11"><path d="M729 344 805 344 805 420 729 420Z" fill-rule="evenodd" clip-rule="evenodd"/></clipPath><clipPath id="clip12"><path d="M729 344 805 344 805 420 729 420Z" fill-rule="evenodd" clip-rule="evenodd"/></clipPath><clipPath id="clip13"><path d="M984 344 1059 344 1059 420 984 420Z" fill-rule="evenodd" clip-rule="evenodd"/></clipPath><clipPath id="clip14"><path d="M984 344 1059 344 1059 420 984 420Z" fill-rule="evenodd" clip-rule="evenodd"/></clipPath><clipPath id="clip15"><path d="M984 344 1059 344 1059 420 984 420Z" fill-rule="evenodd" clip-rule="evenodd"/></clipPath></defs><g clip-path="url(#clip0)"><rect x="0" y="0" width="1280" height="720" fill="#FFFFFF"/><rect x="0" y="0" width="13" height="720" fill="#4472C4"/><g clip-path="url(#clip1)"><g clip-path="url(#clip2)"><g clip-path="url(#clip3)"><path d="M164 78C164 82.4183 151.464 86 136 86 120.536 86 108 82.4183 108 78 108 73.5817 120.536 70 136 70 151.464 70 164 73.5817 164 78Z" stroke="#4472C4" fill="#4472C4"/><path d="M156 98C154.8 98 154 97.2 154 96 154 94.8 154.8 94 156 94 157.2 94 158 94.8 158 96 158 97.2 157.2 98 156 98ZM136 90C120.6 90 108 86.4 108 82L108 98C108 102.4 120.6 106 136 106 151.4 106 164 102.4 164 98L164 82C164 86.4 151.4 90 136 90Z" stroke="#4472C4" fill="#4472C4"/><path d="M156 118C154.8 118 154 117.2 154 116 154 114.8 154.8 114 156 114 157.2 114 158 114.8 158 116 158 117.2 157.2 118 156 118ZM136 110C120.6 110 108 106.4 108 102L108 118C108 122.4 120.6 126 136 126 151.4 126 164 122.4 164 118L164 102C164 106.4 151.4 110 136 110Z" stroke="#4472C4" fill="#4472C4"/><path d="M156 138C154.8 138 154 137.2 154 136 154 134.8 154.8 134 156 134 157.2 134 158 134.8 158 136 158 137.2 157.2 138 156 138ZM136 130C120.6 130 108 126.4 108 122L108 138C108 142.4 120.6 146 136 146 151.4 146 164 142.4 164 138L164 122C164 126.4 151.4 130 136 130Z" stroke="#4472C4" fill="#4472C4"/></g></g></g><text font-family="Calibri,Calibri_MSFontService,sans-serif" font-weight="300" font-size="59" transform="translate(218.116 150)">Datenbankvalidierungen</text><rect x="105" y="215" width="1070" height="8" fill="#7F7F7F" fill-opacity="0.65098"/><path d="M231.24 316 324 316 324 408.76C324 430.432 306.432 448 284.76 448L192 448 192 355.24C192 333.568 209.568 316 231.24 316Z" fill="#44546A" fill-rule="evenodd"/><g clip-path="url(#clip4)"><g clip-path="url(#clip5)"><g clip-path="url(#clip6)"><path d="M59.375 14.0625C59.375 17.5143 49.5812 20.3125 37.5 20.3125 25.4188 20.3125 15.625 17.5143 15.625 14.0625 15.625 10.6107 25.4188 7.8125 37.5 7.8125 49.5812 7.8125 59.375 10.6107 59.375 14.0625Z" fill="#FFFFFF" transform="matrix(1 0 -0 1.01333 221 344)"/><path d="M53.125 29.6875C52.1875 29.6875 51.5625 29.0625 51.5625 28.125 51.5625 27.1875 52.1875 26.5625 53.125 26.5625 54.0625 26.5625 54.6875 27.1875 54.6875 28.125 54.6875 29.0625 54.0625 29.6875 53.125 29.6875ZM37.5 23.4375C25.4687 23.4375 15.625 20.625 15.625 17.1875L15.625 29.6875C15.625 33.125 25.4687 35.9375 37.5 35.9375 49.5313 35.9375 59.375 33.125 59.375 29.6875L59.375 17.1875C59.375 20.625 49.5313 23.4375 37.5 23.4375Z" fill="#FFFFFF" transform="matrix(1 0 -0 1.01333 221 344)"/><path d="M53.125 45.3125C52.1875 45.3125 51.5625 44.6875 51.5625 43.75 51.5625 42.8125 52.1875 42.1875 53.125 42.1875 54.0625 42.1875 54.6875 42.8125 54.6875 43.75 54.6875 44.6875 54.0625 45.3125 53.125 45.3125ZM37.5 39.0625C25.4687 39.0625 15.625 36.25 15.625 32.8125L15.625 45.3125C15.625 48.75 25.4687 51.5625 37.5 51.5625 49.5313 51.5625 59.375 48.75 59.375 45.3125L59.375 32.8125C59.375 36.25 49.5313 39.0625 37.5 39.0625Z" fill="#FFFFFF" transform="matrix(1 0 -0 1.01333 221 344)"/><path d="M53.125 60.9375C52.1875 60.9375 51.5625 60.3125 51.5625 59.375 51.5625 58.4375 52.1875 57.8125 53.125 57.8125 54.0625 57.8125 54.6875 58.4375 54.6875 59.375 54.6875 60.3125 54.0625 60.9375 53.125 60.9375ZM37.5 54.6875C25.4687 54.6875 15.625 51.875 15.625 48.4375L15.625 60.9375C15.625 64.375 25.4687 67.1875 37.5 67.1875 49.5313 67.1875 59.375 64.375 59.375 60.9375L59.375 48.4375C59.375 51.875 49.5313 54.6875 37.5 54.6875Z" fill="#FFFFFF" transform="matrix(1 0 -0 1.01333 221 344)"/></g></g></g><text fill="#44546A" font-family="Calibri,Calibri_MSFontService,sans-serif" font-weight="400" font-size="27" transform="translate(174.293 511)">DATA MAPPING</text><path d="M486.24 316 579 316 579 408.76C579 430.432 561.432 448 539.76 448L447 448 447 355.24C447 333.568 464.568 316 486.24 316Z" fill="#44546A" fill-rule="evenodd"/><g clip-path="url(#clip7)"><g clip-path="url(#clip8)"><g clip-path="url(#clip9)"><path d="M531.375 373.537C532.401 373.14 533.489 372.926 534.589 372.904 532.148 367.598 527.847 363.371 522.5 361.021 522.462 362.107 522.234 363.179 521.827 364.188 525.956 366.163 529.313 369.451 531.375 373.537Z" fill="#FFFFFF"/><path d="M491.411 372.904C492.511 372.926 493.599 373.14 494.625 373.537 496.693 369.447 500.059 366.159 504.197 364.188 503.79 363.179 503.562 362.107 503.524 361.021 498.168 363.366 493.858 367.594 491.411 372.904Z" fill="#FFFFFF"/><path d="M531.699 391.373C529.712 395.683 526.305 399.179 522.049 401.277 522.349 402.211 522.501 403.186 522.5 404.167 522.5 404.301 522.5 404.428 522.5 404.563 528.127 402.098 532.589 397.562 534.961 391.896L534.771 391.896C533.725 391.894 532.687 391.717 531.699 391.373Z" fill="#FFFFFF"/><path d="M494.301 391.373C493.313 391.717 492.275 391.894 491.229 391.896L491.063 391.896C493.429 397.558 497.882 402.093 503.5 404.563 503.5 404.428 503.5 404.301 503.5 404.167 503.499 403.186 503.651 402.211 503.951 401.277 499.695 399.179 496.288 395.683 494.301 391.373Z" fill="#FFFFFF"/><path d="M497.563 382.396C497.563 385.894 494.727 388.729 491.229 388.729 487.731 388.729 484.896 385.894 484.896 382.396 484.896 378.898 487.731 376.063 491.229 376.063 494.727 376.063 497.563 378.898 497.563 382.396Z" fill="#FFFFFF"/><path d="M541.104 382.396C541.104 385.894 538.269 388.729 534.771 388.729 531.273 388.729 528.438 385.894 528.438 382.396 528.438 378.898 531.273 376.063 534.771 376.063 538.269 376.063 541.104 378.898 541.104 382.396Z" fill="#FFFFFF"/><path d="M519.333 404.167C519.333 407.664 516.498 410.5 513 410.5 509.502 410.5 506.667 407.664 506.667 404.167 506.667 400.669 509.502 397.833 513 397.833 516.498 397.833 519.333 400.669 519.333 404.167Z" fill="#FFFFFF"/><path d="M519.333 360.625C519.333 364.123 516.498 366.958 513 366.958 509.502 366.958 506.667 364.123 506.667 360.625 506.667 357.127 509.502 354.292 513 354.292 516.498 354.292 519.333 357.127 519.333 360.625Z" fill="#FFFFFF"/></g></g></g><text fill="#44546A" font-family="Calibri,Calibri_MSFontService,sans-serif" font-weight="400" font-size="27" transform="translate(486.514 511)">ACID</text><path d="M740.24 316 833 316 833 408.76C833 430.432 815.432 448 793.76 448L701 448 701 355.24C701 333.568 718.568 316 740.24 316Z" fill="#44546A" fill-rule="evenodd"/><g clip-path="url(#clip10)"><g clip-path="url(#clip11)"><g clip-path="url(#clip12)"><path d="M797.162 356.508 756.629 394.825 737.154 374.875 730.425 381.288 756.313 407.888 763.121 401.554 803.575 363.158Z" fill="#FFFFFF"/></g></g></g><text fill="#44546A" font-family="Calibri,Calibri_MSFontService,sans-serif" font-weight="400" font-size="27" transform="translate(679.519 511)">DATA INTEGRITY</text><path d="M995.24 316 1088 316 1088 408.76C1088 430.432 1070.43 448 1048.76 448L956 448 956 355.24C956 333.568 973.568 316 995.24 316Z" fill="#44546A" fill-rule="evenodd"/><g clip-path="url(#clip13)"><g clip-path="url(#clip14)"><g clip-path="url(#clip15)"><path d="M43.75 39.4531C43.75 41.1719 42.3438 42.5781 40.625 42.5781L37.5 42.5781C35.7813 42.5781 34.375 41.1719 34.375 39.4531L34.375 37.8906 7.8125 37.8906 7.8125 59.7656C7.8125 61.4844 9.21875 62.8906 10.9375 62.8906L67.1875 62.8906C68.9063 62.8906 70.3125 61.4844 70.3125 59.7656L70.3125 37.8906 43.75 37.8906 43.75 39.4531Z" fill="#FFFFFF" transform="matrix(1 0 -0 1.01333 984 344)"/><path d="M67.1875 19.1406 51.5625 19.1406 51.5625 14.0625C51.5625 11.0156 49.1406 8.59375 46.0938 8.59375L32.0313 8.59375C28.9844 8.59375 26.5625 11.0156 26.5625 14.0625L26.5625 19.1406 10.9375 19.1406C9.21875 19.1406 7.8125 20.5469 7.8125 22.2656L7.8125 34.7656 34.375 34.7656 34.375 33.2031 43.75 33.2031 43.75 34.7656 70.3125 34.7656 70.3125 22.2656C70.3125 20.5469 68.9063 19.1406 67.1875 19.1406M31.25 19.1406 31.25 14.0625C31.25 13.5938 31.5625 13.2813 32.0313 13.2813L46.0938 13.2813C46.5625 13.2813 46.875 13.5938 46.875 14.0625L46.875 19.1406 31.25 19.1406Z" fill="#FFFFFF" transform="matrix(1 0 -0 1.01333 984 344)"/></g></g></g><text fill="#44546A" font-family="Calibri,Calibri_MSFontService,sans-serif" font-weight="400" font-size="27" transform="translate(925.431 511)">EINHALTUNG DER <tspan x="-9.29999" y="29">GESCHÄFTSREGELN</tspan></text></g></svg>