<svg width="1280" height="720" xmlns="http://www.w3.org/2000/svg" xmlns:xlink="http://www.w3.org/1999/xlink" overflow="hidden"><defs><clipPath id="clip0"><path d="M0 0 1280 0 1280 720 0 720Z" fill-rule="evenodd" clip-rule="evenodd"/></clipPath><clipPath id="clip1"><path d="M988 300 1108 300 1108 420 988 420Z" fill-rule="evenodd" clip-rule="evenodd"/></clipPath><clipPath id="clip2"><path d="M988 300 1108 300 1108 420 988 420Z" fill-rule="evenodd" clip-rule="evenodd"/></clipPath><clipPath id="clip3"><path d="M988 300 1108 300 1108 420 988 420Z" fill-rule="evenodd" clip-rule="evenodd"/></clipPath></defs><g clip-path="url(#clip0)"><rect x="0" y="0" width="1280" height="720" fill="#FFFFFF"/><rect x="1059" y="0" width="221" height="720" fill="#4472C4"/><path d="M936 360C936 298.144 986.368 248 1048.5 248 1110.63 248 1161 298.144 1161 360 1161 421.856 1110.63 472 1048.5 472 986.368 472 936 421.856 936 360Z" stroke="#4472C4" stroke-width="2" stroke-miterlimit="8" fill="#FFFFFF" fill-rule="evenodd"/><g clip-path="url(#clip1)"><g clip-path="url(#clip2)"><g clip-path="url(#clip3)"><path d="M1083 322.5C1083 328.023 1067.33 332.5 1048 332.5 1028.67 332.5 1013 328.023 1013 322.5 1013 316.977 1028.67 312.5 1048 312.5 1067.33 312.5 1083 316.977 1083 322.5Z" stroke="#4472C4" stroke-width="1.25" fill="#4472C4"/><path d="M1073 347.5C1071.5 347.5 1070.5 346.5 1070.5 345 1070.5 343.5 1071.5 342.5 1073 342.5 1074.5 342.5 1075.5 343.5 1075.5 345 1075.5 346.5 1074.5 347.5 1073 347.5ZM1048 337.5C1028.75 337.5 1013 333 1013 327.5L1013 347.5C1013 353 1028.75 357.5 1048 357.5 1067.25 357.5 1083 353 1083 347.5L1083 327.5C1083 333 1067.25 337.5 1048 337.5Z" stroke="#4472C4" stroke-width="1.25" fill="#4472C4"/><path d="M1073 372.5C1071.5 372.5 1070.5 371.5 1070.5 370 1070.5 368.5 1071.5 367.5 1073 367.5 1074.5 367.5 1075.5 368.5 1075.5 370 1075.5 371.5 1074.5 372.5 1073 372.5ZM1048 362.5C1028.75 362.5 1013 358 1013 352.5L1013 372.5C1013 378 1028.75 382.5 1048 382.5 1067.25 382.5 1083 378 1083 372.5L1083 352.5C1083 358 1067.25 362.5 1048 362.5Z" stroke="#4472C4" stroke-width="1.25" fill="#4472C4"/><path d="M1073 397.5C1071.5 397.5 1070.5 396.5 1070.5 395 1070.5 393.5 1071.5 392.5 1073 392.5 1074.5 392.5 1075.5 393.5 1075.5 395 1075.5 396.5 1074.5 397.5 1073 397.5ZM1048 387.5C1028.75 387.5 1013 383 1013 377.5L1013 397.5C1013 403 1028.75 407.5 1048 407.5 1067.25 407.5 1083 403 1083 397.5L1083 377.5C1083 383 1067.25 387.5 1048 387.5Z" stroke="#4472C4" stroke-width="1.25" fill="#4472C4"/></g></g></g><text font-family="Calibri,Calibri_MSFontService,sans-serif" font-weight="300" font-size="59" transform="translate(97.6 124)">JDBC -<tspan x="161.333" y="0">CallableStatement</tspan></text><rect x="88" y="234" width="809" height="372" fill="#FFFFFF"/><text font-family="Consolas,Consolas_MSFontService,sans-serif" font-weight="400" font-size="21" transform="translate(97.6 261)">CallableStatement<tspan x="210" y="0">callableStatement</tspan><tspan x="420" y="0">=</tspan><tspan fill="#660E7A" font-style="italic" x="93.3333" y="26">connection</tspan>.prepareCall(<tspan fill="#008000" font-weight="700" x="361.667" y="26">"{</tspan><tspan fill="#008000" font-weight="700" x="385" y="26">call</tspan><tspan fill="#008000" font-style="italic" x="443.333" y="26">calculateStatistics</tspan><tspan fill="#008000" font-weight="700" x="665" y="26">(?, ?)}"</tspan>);<tspan x="0" y="77">callableStatement.setString</tspan>(<tspan fill="#0000FF" x="326.667" y="77">1</tspan><tspan x="338.333" y="77">, </tspan><tspan fill="#008000" font-weight="700" x="361.667" y="77">"param1"</tspan><tspan x="455" y="77">);</tspan><tspan x="0" y="103">callableStatement.setInt</tspan><tspan x="315" y="103">(</tspan><tspan fill="#0000FF" x="326.667" y="103">2</tspan><tspan x="338.333" y="103">, </tspan><tspan fill="#0000FF" x="361.667" y="103">123</tspan>);<tspan x="0" y="154">callableStatement.registerOutParameter</tspan><tspan x="443.333" y="154">(</tspan><tspan fill="#0000FF" x="455" y="154">1</tspan><tspan x="466.667" y="154">, </tspan><tspan x="490" y="154">java.sql.Types.</tspan><tspan fill="#660E7A" font-style="italic" font-weight="700" x="665" y="154">VARCHAR</tspan><tspan x="746.667" y="154">);</tspan><tspan x="0" y="179">callableStatement.registerOutParameter</tspan><tspan x="443.333" y="179">(</tspan><tspan fill="#0000FF" x="455" y="179">2</tspan><tspan x="466.667" y="179">, </tspan><tspan x="490" y="179">java.sql.Types.</tspan><tspan fill="#660E7A" font-style="italic" font-weight="700" x="665" y="179">INTEGER</tspan><tspan x="746.667" y="179">);</tspan><tspan x="0" y="231">ResultSet</tspan><tspan x="116.667" y="231">result</tspan><tspan x="198.333" y="231">= </tspan><tspan x="221.667" y="231">callableStatement.executeQuery</tspan><tspan x="571.667" y="231">();</tspan><tspan fill="#000080" font-weight="700" x="0" y="256">while</tspan>(<tspan x="70" y="256">result.next</tspan>()) { ... }<tspan x="0" y="307">String out1 = </tspan>callableStatement.getString(<tspan fill="#0000FF" x="490" y="307">1</tspan><tspan x="501.667" y="307">);</tspan><tspan fill="#000080" font-weight="700" x="0" y="333">int</tspan><tspan x="81.6667" y="333">out2 = </tspan><tspan x="163.333" y="333">callableStatement.getInt</tspan><tspan x="478.333" y="333">(</tspan><tspan fill="#0000FF" x="490" y="333">2</tspan><tspan x="501.667" y="333">);</tspan></text></g></svg>