<svg width="1280" height="720" xmlns="http://www.w3.org/2000/svg" xmlns:xlink="http://www.w3.org/1999/xlink" overflow="hidden"><defs><clipPath id="clip0"><path d="M0 0 1280 0 1280 720 0 720Z" fill-rule="evenodd" clip-rule="evenodd"/></clipPath><clipPath id="clip1"><path d="M88 60 184 60 184 156 88 156Z" fill-rule="evenodd" clip-rule="evenodd"/></clipPath><clipPath id="clip2"><path d="M88 60 184 60 184 156 88 156Z" fill-rule="evenodd" clip-rule="evenodd"/></clipPath><clipPath id="clip3"><path d="M88 60 184 60 184 156 88 156Z" fill-rule="evenodd" clip-rule="evenodd"/></clipPath></defs><g clip-path="url(#clip0)"><rect x="0" y="0" width="1280" height="720" fill="#FFFFFF"/><rect x="0" y="0" width="13" height="720" fill="#4472C4"/><g clip-path="url(#clip1)"><g clip-path="url(#clip2)"><g clip-path="url(#clip3)"><path d="M164 78C164 82.4183 151.464 86 136 86 120.536 86 108 82.4183 108 78 108 73.5817 120.536 70 136 70 151.464 70 164 73.5817 164 78Z" stroke="#4472C4" fill="#4472C4"/><path d="M156 98C154.8 98 154 97.2 154 96 154 94.8 154.8 94 156 94 157.2 94 158 94.8 158 96 158 97.2 157.2 98 156 98ZM136 90C120.6 90 108 86.4 108 82L108 98C108 102.4 120.6 106 136 106 151.4 106 164 102.4 164 98L164 82C164 86.4 151.4 90 136 90Z" stroke="#4472C4" fill="#4472C4"/><path d="M156 118C154.8 118 154 117.2 154 116 154 114.8 154.8 114 156 114 157.2 114 158 114.8 158 116 158 117.2 157.2 118 156 118ZM136 110C120.6 110 108 106.4 108 102L108 118C108 122.4 120.6 126 136 126 151.4 126 164 122.4 164 118L164 102C164 106.4 151.4 110 136 110Z" stroke="#4472C4" fill="#4472C4"/><path d="M156 138C154.8 138 154 137.2 154 136 154 134.8 154.8 134 156 134 157.2 134 158 134.8 158 136 158 137.2 157.2 138 156 138ZM136 130C120.6 130 108 126.4 108 122L108 138C108 142.4 120.6 146 136 146 151.4 146 164 142.4 164 138L164 122C164 126.4 151.4 130 136 130Z" stroke="#4472C4" fill="#4472C4"/></g></g></g><text font-family="Calibri,Calibri_MSFontService,sans-serif" font-weight="300" font-size="59" transform="translate(193.6 124)">Quellen<tspan font-family="Arial,Arial_MSFontService,sans-serif" font-weight="400" font-size="20" x="-96" y="85">•</tspan><tspan fill="#0563C1" font-weight="400" font-size="20" x="-72" y="85">https://www.xenonstack.com/insights/what</tspan><tspan fill="#0563C1" font-weight="400" font-size="20" x="285.773" y="85">-</tspan><tspan fill="#0563C1" font-weight="400" font-size="20" x="291.94" y="85">is</tspan><tspan fill="#0563C1" font-weight="400" font-size="20" x="304.44" y="85">-</tspan><tspan fill="#0563C1" font-weight="400" font-size="20" x="310.607" y="85">database</tspan><tspan fill="#0563C1" font-weight="400" font-size="20" x="384.173" y="85">-</tspan><tspan fill="#0563C1" font-weight="400" font-size="20" x="390.34" y="85">testing/</tspan></text><path d="M121.6 211.467 384.6 211.467 647.6 211.467 647.6 212.467 384.6 212.467 121.6 212.467Z" fill="#0563C1" fill-rule="evenodd"/><text font-family="Arial,Arial_MSFontService,sans-serif" font-weight="400" font-size="20" transform="translate(97.6 239)">•<tspan fill="#0563C1" font-family="Calibri,Calibri_MSFontService,sans-serif" x="24" y="0">https://jaxenter.de/wohl</tspan><tspan fill="#0563C1" font-family="Calibri,Calibri_MSFontService,sans-serif" x="223.287" y="0">-</tspan><tspan fill="#0563C1" font-family="Calibri,Calibri_MSFontService,sans-serif" x="229.453" y="0">oder</tspan><tspan fill="#0563C1" font-family="Calibri,Calibri_MSFontService,sans-serif" x="267.453" y="0">-</tspan><tspan fill="#0563C1" font-family="Calibri,Calibri_MSFontService,sans-serif" x="273.62" y="0">uebel</tspan><tspan fill="#0563C1" font-family="Calibri,Calibri_MSFontService,sans-serif" x="319.287" y="0">-</tspan><tspan fill="#0563C1" font-family="Calibri,Calibri_MSFontService,sans-serif" x="325.453" y="0">es</tspan><tspan fill="#0563C1" font-family="Calibri,Calibri_MSFontService,sans-serif" x="343.287" y="0">-</tspan><tspan fill="#0563C1" font-family="Calibri,Calibri_MSFontService,sans-serif" x="349.453" y="0">muss</tspan><tspan fill="#0563C1" font-family="Calibri,Calibri_MSFontService,sans-serif" x="391.62" y="0">-</tspan><tspan fill="#0563C1" font-family="Calibri,Calibri_MSFontService,sans-serif" x="397.787" y="0">gemacht</tspan><tspan fill="#0563C1" font-family="Calibri,Calibri_MSFontService,sans-serif" x="467.933" y="0">-</tspan><tspan fill="#0563C1" font-family="Calibri,Calibri_MSFontService,sans-serif" x="474.1" y="0">werden</tspan><tspan fill="#0563C1" font-family="Calibri,Calibri_MSFontService,sans-serif" x="535.987" y="0">-</tspan><tspan fill="#0563C1" font-family="Calibri,Calibri_MSFontService,sans-serif" x="542.153" y="0">datenbank</tspan><tspan fill="#0563C1" font-family="Calibri,Calibri_MSFontService,sans-serif" x="628.587" y="0">-</tspan><tspan fill="#0563C1" font-family="Calibri,Calibri_MSFontService,sans-serif" x="634.753" y="0">tests</tspan><tspan fill="#0563C1" font-family="Calibri,Calibri_MSFontService,sans-serif" x="673.313" y="0">-</tspan><tspan fill="#0563C1" font-family="Calibri,Calibri_MSFontService,sans-serif" x="679.48" y="0">26109</tspan></text><path d="M121.6 241.467 356.933 241.467 592.267 241.467 827.6 241.467 827.6 242.467 592.267 242.467 356.933 242.467 121.6 242.467Z" fill="#0563C1" fill-rule="evenodd"/><text font-family="Arial,Arial_MSFontService,sans-serif" font-weight="400" font-size="20" transform="translate(97.6 269)">•<tspan fill="#0563C1" font-family="Calibri,Calibri_MSFontService,sans-serif" x="24" y="0">http://www.agiledata.org/essays/databaseTesting.html</tspan></text><path d="M121.6 271.467 345.1 271.467 568.6 271.467 568.6 272.467 345.1 272.467 121.6 272.467Z" fill="#0563C1" fill-rule="evenodd"/><text font-family="Arial,Arial_MSFontService,sans-serif" font-weight="400" font-size="20" transform="translate(97.6 299)">•<tspan fill="#0563C1" font-family="Calibri,Calibri_MSFontService,sans-serif" x="24" y="0">http://www.agiledata.org/essays/whatToTest.html</tspan></text><path d="M121.6 301.467 325.6 301.467 529.6 301.467 529.6 302.467 325.6 302.467 121.6 302.467Z" fill="#0563C1" fill-rule="evenodd"/><text font-family="Arial,Arial_MSFontService,sans-serif" font-weight="400" font-size="20" transform="translate(97.6 329)">•<tspan fill="#0563C1" font-family="Calibri,Calibri_MSFontService,sans-serif" x="24" y="0">https://www.testbytes.net/blog/database</tspan><tspan fill="#0563C1" font-family="Calibri,Calibri_MSFontService,sans-serif" x="363.907" y="0">-</tspan><tspan fill="#0563C1" font-family="Calibri,Calibri_MSFontService,sans-serif" x="370.073" y="0">testing/</tspan></text><path d="M121.6 331.467 326.6 331.467 531.6 331.467 531.6 332.467 326.6 332.467 121.6 332.467Z" fill="#0563C1" fill-rule="evenodd"/><text font-family="Arial,Arial_MSFontService,sans-serif" font-weight="400" font-size="20" transform="translate(97.6 359)">•<tspan fill="#0563C1" font-family="Calibri,Calibri_MSFontService,sans-serif" x="24" y="0">https://www.guru99.com/data</tspan><tspan fill="#0563C1" font-family="Calibri,Calibri_MSFontService,sans-serif" x="274.26" y="0">-</tspan><tspan fill="#0563C1" font-family="Calibri,Calibri_MSFontService,sans-serif" x="280.427" y="0">testing.html</tspan></text><path d="M121.6 361.467 298.6 361.467 475.6 361.467 475.6 362.467 298.6 362.467 121.6 362.467Z" fill="#0563C1" fill-rule="evenodd"/><text font-family="Arial,Arial_MSFontService,sans-serif" font-weight="400" font-size="20" transform="translate(97.6 389)">•<tspan fill="#0563C1" font-family="Calibri,Calibri_MSFontService,sans-serif" x="24" y="0">https://www.tutorialspoint.com/database_testing/</tspan></text><path d="M121.6 391.467 328.6 391.467 535.6 391.467 535.6 392.467 328.6 392.467 121.6 392.467Z" fill="#0563C1" fill-rule="evenodd"/><text font-family="Arial,Arial_MSFontService,sans-serif" font-weight="400" font-size="20" transform="translate(97.6 420)">•<tspan fill="#0563C1" font-family="Calibri,Calibri_MSFontService,sans-serif" x="24" y="0">https://www.softwaretestinghelp.com/database</tspan><tspan fill="#0563C1" font-family="Calibri,Calibri_MSFontService,sans-serif" x="416.507" y="0">-</tspan><tspan fill="#0563C1" font-family="Calibri,Calibri_MSFontService,sans-serif" x="422.673" y="0">testing</tspan><tspan fill="#0563C1" font-family="Calibri,Calibri_MSFontService,sans-serif" x="477.9" y="0">-</tspan><tspan fill="#0563C1" font-family="Calibri,Calibri_MSFontService,sans-serif" x="484.067" y="0">process/</tspan></text><path d="M121.6 422.467 386.6 422.467 651.6 422.467 651.6 423.467 386.6 423.467 121.6 423.467Z" fill="#0563C1" fill-rule="evenodd"/><text font-family="Arial,Arial_MSFontService,sans-serif" font-weight="400" font-size="20" transform="translate(97.6 450)">•<tspan fill="#0563C1" font-family="Calibri,Calibri_MSFontService,sans-serif" x="24" y="0">https://www.techbeamers.com/database</tspan><tspan fill="#0563C1" font-family="Calibri,Calibri_MSFontService,sans-serif" x="359.733" y="0">-</tspan><tspan fill="#0563C1" font-family="Calibri,Calibri_MSFontService,sans-serif" x="365.9" y="0">testing/#what</tspan><tspan fill="#0563C1" font-family="Calibri,Calibri_MSFontService,sans-serif" x="480.32" y="0">-</tspan><tspan fill="#0563C1" font-family="Calibri,Calibri_MSFontService,sans-serif" x="486.487" y="0">is</tspan><tspan fill="#0563C1" font-family="Calibri,Calibri_MSFontService,sans-serif" x="498.987" y="0">-</tspan><tspan fill="#0563C1" font-family="Calibri,Calibri_MSFontService,sans-serif" x="505.153" y="0">database</tspan><tspan fill="#0563C1" font-family="Calibri,Calibri_MSFontService,sans-serif" x="578.72" y="0">-</tspan><tspan fill="#0563C1" font-family="Calibri,Calibri_MSFontService,sans-serif" x="584.887" y="0">testing</tspan><tspan fill="#0563C1" font-family="Calibri,Calibri_MSFontService,sans-serif" x="640.113" y="0">-</tspan><tspan fill="#0563C1" font-family="Calibri,Calibri_MSFontService,sans-serif" x="646.28" y="0">and</tspan><tspan fill="#0563C1" font-family="Calibri,Calibri_MSFontService,sans-serif" x="676.78" y="0">-</tspan><tspan fill="#0563C1" font-family="Calibri,Calibri_MSFontService,sans-serif" x="682.947" y="0">why</tspan><tspan fill="#0563C1" font-family="Calibri,Calibri_MSFontService,sans-serif" x="716.407" y="0">-</tspan><tspan fill="#0563C1" font-family="Calibri,Calibri_MSFontService,sans-serif" x="722.573" y="0">is</tspan><tspan fill="#0563C1" font-family="Calibri,Calibri_MSFontService,sans-serif" x="735.073" y="0">-</tspan><tspan fill="#0563C1" font-family="Calibri,Calibri_MSFontService,sans-serif" x="741.24" y="0">it</tspan><tspan fill="#0563C1" font-family="Calibri,Calibri_MSFontService,sans-serif" x="752.573" y="0">-</tspan><tspan fill="#0563C1" font-family="Calibri,Calibri_MSFontService,sans-serif" x="758.74" y="0">important</tspan></text><path d="M121.6 452.467 325.6 452.467 529.6 452.467 733.6 452.467 937.6 452.467 937.6 453.467 733.6 453.467 529.6 453.467 325.6 453.467 121.6 453.467Z" fill="#0563C1" fill-rule="evenodd"/><text font-family="Arial,Arial_MSFontService,sans-serif" font-weight="400" font-size="20" transform="translate(97.6 480)">•<tspan fill="#0563C1" font-family="Calibri,Calibri_MSFontService,sans-serif" x="24" y="0">https://de.wikipedia.org/wiki/ACID</tspan></text><path d="M121.6 482.467 263.6 482.467 405.6 482.467 405.6 483.467 263.6 483.467 121.6 483.467Z" fill="#0563C1" fill-rule="evenodd"/><text font-family="Arial,Arial_MSFontService,sans-serif" font-weight="400" font-size="20" transform="translate(97.6 510)">•<tspan fill="#0563C1" font-family="Calibri,Calibri_MSFontService,sans-serif" x="24" y="0">https://image.slidesharecdn.com/bigdata20153</tspan><tspan fill="#0563C1" font-family="Calibri,Calibri_MSFontService,sans-serif" x="410.713" y="0">-</tspan><tspan fill="#0563C1" font-family="Calibri,Calibri_MSFontService,sans-serif" x="416.88" y="0">150312093513</tspan><tspan fill="#0563C1" font-family="Calibri,Calibri_MSFontService,sans-serif" x="538.88" y="0">-</tspan><tspan fill="#0563C1" font-family="Calibri,Calibri_MSFontService,sans-serif" x="545.047" y="0">conversion</tspan><tspan fill="#0563C1" font-family="Calibri,Calibri_MSFontService,sans-serif" x="633.013" y="0">-</tspan><tspan fill="#0563C1" font-family="Calibri,Calibri_MSFontService,sans-serif" x="639.18" y="0">gate01/95/bigdataanalyse</tspan><tspan fill="#0563C1" font-family="Calibri,Calibri_MSFontService,sans-serif" x="850.767" y="0">-</tspan><tspan fill="#0563C1" font-family="Calibri,Calibri_MSFontService,sans-serif" x="856.933" y="0">und</tspan><tspan fill="#0563C1" font-family="Calibri,Calibri_MSFontService,sans-serif" x="888.433" y="0">-</tspan><tspan fill="#0563C1" font-family="Calibri,Calibri_MSFontService,sans-serif" x="894.6" y="0">nosqldatenbanken</tspan><tspan fill="#0563C1" font-family="Calibri,Calibri_MSFontService,sans-serif" x="1044.89" y="0">-</tspan><tspan fill="#0563C1" font-family="Calibri,Calibri_MSFontService,sans-serif" x="1051.05" y="0">44</tspan><tspan fill="#0563C1" font-family="Calibri,Calibri_MSFontService,sans-serif" x="1071.39" y="0">-</tspan></text><path d="M121.6 512.467 385.1 512.467 648.6 512.467 912.1 512.467 1175.6 512.467 1175.6 513.467 912.1 513.467 648.6 513.467 385.1 513.467 121.6 513.467Z" fill="#0563C1" fill-rule="evenodd"/><text fill="#0563C1" font-family="Calibri,Calibri_MSFontService,sans-serif" font-weight="400" font-size="20" transform="translate(121.6 527)">638.jpg?cb=1426153163</text><path d="M121.6 529.467 321.6 529.467 321.6 530.467 121.6 530.467Z" fill="#0563C1" fill-rule="evenodd"/><text font-family="Arial,Arial_MSFontService,sans-serif" font-weight="400" font-size="20" transform="translate(97.6 557)">•<tspan fill="#0563C1" font-family="Calibri,Calibri_MSFontService,sans-serif" x="24" y="0">https://github.com/database</tspan><tspan fill="#0563C1" font-family="Calibri,Calibri_MSFontService,sans-serif" x="259.16" y="0">-</tspan><tspan fill="#0563C1" font-family="Calibri,Calibri_MSFontService,sans-serif" x="265.327" y="0">rider/database</tspan><tspan fill="#0563C1" font-family="Calibri,Calibri_MSFontService,sans-serif" x="385.727" y="0">-</tspan><tspan fill="#0563C1" font-family="Calibri,Calibri_MSFontService,sans-serif" x="391.893" y="0">rider</tspan></text><path d="M121.6 559.467 325.1 559.467 528.6 559.467 528.6 560.467 325.1 560.467 121.6 560.467Z" fill="#0563C1" fill-rule="evenodd"/><text font-family="Arial,Arial_MSFontService,sans-serif" font-weight="400" font-size="20" transform="translate(97.6 587)">•<tspan fill="#0563C1" font-family="Calibri,Calibri_MSFontService,sans-serif" x="24" y="0">https://joel</tspan><tspan fill="#0563C1" font-family="Calibri,Calibri_MSFontService,sans-serif" x="116.267" y="0">-</tspan><tspan fill="#0563C1" font-family="Calibri,Calibri_MSFontService,sans-serif" x="122.433" y="0">costigliola.github.io/assertj/assertj</tspan><tspan fill="#0563C1" font-family="Calibri,Calibri_MSFontService,sans-serif" x="403.033" y="0">-</tspan><tspan fill="#0563C1" font-family="Calibri,Calibri_MSFontService,sans-serif" x="409.2" y="0">db.html</tspan></text><path d="M121.6 589.467 346.1 589.467 570.6 589.467 570.6 590.467 346.1 590.467 121.6 590.467Z" fill="#0563C1" fill-rule="evenodd"/><text font-family="Arial,Arial_MSFontService,sans-serif" font-weight="400" font-size="20" transform="translate(97.6 617)">•<tspan fill="#0563C1" font-family="Calibri,Calibri_MSFontService,sans-serif" x="24" y="0">https://joel</tspan><tspan fill="#0563C1" font-family="Calibri,Calibri_MSFontService,sans-serif" x="116.267" y="0">-</tspan><tspan fill="#0563C1" font-family="Calibri,Calibri_MSFontService,sans-serif" x="122.433" y="0">costigliola.github.io/assertj/assertj</tspan><tspan fill="#0563C1" font-family="Calibri,Calibri_MSFontService,sans-serif" x="403.033" y="0">-</tspan><tspan fill="#0563C1" font-family="Calibri,Calibri_MSFontService,sans-serif" x="409.2" y="0">db</tspan><tspan fill="#0563C1" font-family="Calibri,Calibri_MSFontService,sans-serif" x="430.2" y="0">-</tspan><tspan fill="#0563C1" font-family="Calibri,Calibri_MSFontService,sans-serif" x="436.367" y="0">concepts.html</tspan></text><path d="M121.6 619.467 385.6 619.467 649.6 619.467 649.6 620.467 385.6 620.467 121.6 620.467Z" fill="#0563C1" fill-rule="evenodd"/></g></svg>