<svg width="1280" height="720" xmlns="http://www.w3.org/2000/svg" xmlns:xlink="http://www.w3.org/1999/xlink" overflow="hidden"><defs><clipPath id="clip0"><path d="M0 0 1280 0 1280 720 0 720Z" fill-rule="evenodd" clip-rule="evenodd"/></clipPath><clipPath id="clip1"><path d="M88 60 184 60 184 156 88 156Z" fill-rule="evenodd" clip-rule="evenodd"/></clipPath><clipPath id="clip2"><path d="M88 60 184 60 184 156 88 156Z" fill-rule="evenodd" clip-rule="evenodd"/></clipPath><clipPath id="clip3"><path d="M88 60 184 60 184 156 88 156Z" fill-rule="evenodd" clip-rule="evenodd"/></clipPath></defs><g clip-path="url(#clip0)"><rect x="0" y="0" width="1280" height="720" fill="#FFFFFF"/><rect x="0" y="0" width="13" height="720" fill="#4472C4"/><g clip-path="url(#clip1)"><g clip-path="url(#clip2)"><g clip-path="url(#clip3)"><path d="M164 78C164 82.4183 151.464 86 136 86 120.536 86 108 82.4183 108 78 108 73.5817 120.536 70 136 70 151.464 70 164 73.5817 164 78Z" stroke="#4472C4" fill="#4472C4"/><path d="M156 98C154.8 98 154 97.2 154 96 154 94.8 154.8 94 156 94 157.2 94 158 94.8 158 96 158 97.2 157.2 98 156 98ZM136 90C120.6 90 108 86.4 108 82L108 98C108 102.4 120.6 106 136 106 151.4 106 164 102.4 164 98L164 82C164 86.4 151.4 90 136 90Z" stroke="#4472C4" fill="#4472C4"/><path d="M156 118C154.8 118 154 117.2 154 116 154 114.8 154.8 114 156 114 157.2 114 158 114.8 158 116 158 117.2 157.2 118 156 118ZM136 110C120.6 110 108 106.4 108 102L108 118C108 122.4 120.6 126 136 126 151.4 126 164 122.4 164 118L164 102C164 106.4 151.4 110 136 110Z" stroke="#4472C4" fill="#4472C4"/><path d="M156 138C154.8 138 154 137.2 154 136 154 134.8 154.8 134 156 134 157.2 134 158 134.8 158 136 158 137.2 157.2 138 156 138ZM136 130C120.6 130 108 126.4 108 122L108 138C108 142.4 120.6 146 136 146 151.4 146 164 142.4 164 138L164 122C164 126.4 151.4 130 136 130Z" stroke="#4472C4" fill="#4472C4"/></g></g></g><text font-family="Calibri,Calibri_MSFontService,sans-serif" font-weight="300" font-size="59" transform="translate(193.6 124)">Complex<tspan x="217.807" y="0">SQL</tspan></text><rect x="88" y="202" width="947" height="436" fill="#FFFFFF"/><text font-family="Consolas,Consolas_MSFontService,sans-serif" font-weight="400" font-size="32" transform="translate(97.6 239)">SELECT AUTHOR.FIRST_NAME, AUTHOR.LAST_NAME, COUNT(*)<tspan x="0" y="39">FROM AUTHOR</tspan><tspan x="0" y="77">JOIN BOOK ON AUTHOR.ID = BOOK.AUTHOR_ID</tspan><tspan x="0" y="115">WHERE BOOK.LANGUAGE = </tspan><tspan fill="#008000" font-weight="700" x="388.667" y="115">'DE'</tspan><tspan x="0" y="154">AND BOOK.PUBLISHED_IN &gt; </tspan><tspan fill="#0000FF" x="424" y="154">2008</tspan><tspan x="0" y="192">GROUP BY AUTHOR.FIRST_NAME, AUTHOR.LAST_NAME</tspan><tspan x="0" y="231">HAVING COUNT(*) &gt; </tspan><tspan fill="#0000FF" x="318" y="231">5</tspan><tspan x="0" y="269">ORDER BY AUTHOR.LAST_NAME ASC NULLS FIRST</tspan><tspan x="0" y="307">LIMIT </tspan><tspan fill="#0000FF" x="106" y="307">2</tspan><tspan x="0" y="346">OFFSET </tspan><tspan fill="#0000FF" x="123.667" y="346">1</tspan><tspan x="0" y="384">FOR UPDATE</tspan></text></g></svg>