<svg width="1280" height="720" xmlns="http://www.w3.org/2000/svg" xmlns:xlink="http://www.w3.org/1999/xlink" overflow="hidden"><defs><clipPath id="clip0"><path d="M0 0 1280 0 1280 720 0 720Z" fill-rule="evenodd" clip-rule="evenodd"/></clipPath><clipPath id="clip1"><path d="M412 160 868 160 868 615 412 615Z" fill-rule="evenodd" clip-rule="evenodd"/></clipPath><clipPath id="clip2"><path d="M412 160 868 160 868 615 412 615Z" fill-rule="evenodd" clip-rule="evenodd"/></clipPath><clipPath id="clip3"><path d="M412 160 868 160 868 615 412 615Z" fill-rule="evenodd" clip-rule="evenodd"/></clipPath></defs><g clip-path="url(#clip0)"><rect x="0" y="0" width="1280" height="720" fill="#FFFFFF"/><text font-family="Calibri,Calibri_MSFontService,sans-serif" font-weight="300" font-size="72" transform="translate(285.907 105)">Testen von Datenbanken</text><rect x="0" y="5.24934e-05" width="1280" height="13" fill="#4472C4"/><g clip-path="url(#clip1)"><g clip-path="url(#clip2)"><g clip-path="url(#clip3)"><path d="M360.208 85.3125C360.208 106.253 300.793 123.229 227.5 123.229 154.207 123.229 94.7917 106.253 94.7917 85.3125 94.7917 64.3717 154.207 47.3958 227.5 47.3958 300.793 47.3958 360.208 64.3717 360.208 85.3125Z" stroke="#4472C4" stroke-width="4.73958" fill="#4472C4" transform="matrix(1.0022 0 -0 1 412 160)"/><path d="M322.292 180.104C316.604 180.104 312.813 176.313 312.813 170.625 312.813 164.938 316.604 161.146 322.292 161.146 327.979 161.146 331.771 164.938 331.771 170.625 331.771 176.313 327.979 180.104 322.292 180.104ZM227.5 142.188C154.51 142.188 94.7917 125.125 94.7917 104.271L94.7917 180.104C94.7917 200.958 154.51 218.021 227.5 218.021 300.49 218.021 360.208 200.958 360.208 180.104L360.208 104.271C360.208 125.125 300.49 142.188 227.5 142.188Z" stroke="#4472C4" stroke-width="4.73958" fill="#4472C4" transform="matrix(1.0022 0 -0 1 412 160)"/><path d="M322.292 274.896C316.604 274.896 312.813 271.104 312.813 265.417 312.813 259.729 316.604 255.938 322.292 255.938 327.979 255.938 331.771 259.729 331.771 265.417 331.771 271.104 327.979 274.896 322.292 274.896ZM227.5 236.979C154.51 236.979 94.7917 219.917 94.7917 199.063L94.7917 274.896C94.7917 295.75 154.51 312.813 227.5 312.813 300.49 312.813 360.208 295.75 360.208 274.896L360.208 199.063C360.208 219.917 300.49 236.979 227.5 236.979Z" stroke="#4472C4" stroke-width="4.73958" fill="#4472C4" transform="matrix(1.0022 0 -0 1 412 160)"/><path d="M322.292 369.688C316.604 369.688 312.813 365.896 312.813 360.208 312.813 354.521 316.604 350.729 322.292 350.729 327.979 350.729 331.771 354.521 331.771 360.208 331.771 365.896 327.979 369.688 322.292 369.688ZM227.5 331.771C154.51 331.771 94.7917 314.708 94.7917 293.854L94.7917 369.688C94.7917 390.542 154.51 407.604 227.5 407.604 300.49 407.604 360.208 390.542 360.208 369.688L360.208 293.854C360.208 314.708 300.49 331.771 227.5 331.771Z" stroke="#4472C4" stroke-width="4.73958" fill="#4472C4" transform="matrix(1.0022 0 -0 1 412 160)"/></g></g></g><text fill="#7F7F7F" font-family="Calibri,Calibri_MSFontService,sans-serif" font-weight="400" font-size="24" transform="translate(1013.36 642)">Christian Steyrer</text></g></svg>